<svg xmlns="http://www.w3.org/2000/svg" width="256" height="256" viewBox="0 0 256 256">
  <g>
    <path d="M128,40.43l84.44,48.75v97.5L128,235.43,43.56,186.68V89.18L128,40.43m0-20.57a16.33,16.33,0,0,0-8.17,2.19L31.73,72.91a16.34,16.34,0,0,0-8.17,14.16V188.79A16.34,16.34,0,0,0,31.73,203l88.1,50.86a16.33,16.33,0,0,0,16.34,0L224.27,203a16.34,16.34,0,0,0,8.17-14.16V87.07a16.34,16.34,0,0,0-8.17-14.16l-88.1-50.86A16.33,16.33,0,0,0,128,19.86Z" style="fill: #3e863d"/>
    <line x1="35.54" y1="34" x2="77.11" y2="10" style="fill: none;stroke: #3e863d;stroke-linecap: round;stroke-miterlimit: 10;stroke-width: 20px"/>
    <line x1="223.49" y1="33.77" x2="181.92" y2="9.77" style="fill: none;stroke: #3e863d;stroke-linecap: round;stroke-miterlimit: 10;stroke-width: 20px"/>
    <line x1="75.25" y1="52.42" x2="59.75" y2="25.58" style="fill: none;stroke: #3e863d;stroke-miterlimit: 10;stroke-width: 30px"/>
    <line x1="183.87" y1="55.5" x2="198.87" y2="29.52" style="fill: none;stroke: #3e863d;stroke-miterlimit: 10;stroke-width: 30px"/>
  </g>
  <g>
    <circle cx="128" cy="138" r="24" style="fill: #3e863d"/>
    <line x1="128" y1="138" x2="188.62" y2="103" style="fill: none;stroke: #3e863d;stroke-linecap: round;stroke-miterlimit: 10;stroke-width: 18px"/>
    <line x1="128" y1="138" x2="128" y2="208" style="fill: none;stroke: #3e863d;stroke-linecap: round;stroke-miterlimit: 10;stroke-width: 18px"/>
  </g>
  <g>
    <line x1="76.1" y1="106.86" x2="58.78" y2="96.86" style="fill: none;stroke: #3e863d;stroke-linecap: round;stroke-miterlimit: 10;stroke-width: 18px"/>
    <line x1="58.38" y1="177.14" x2="75.7" y2="167.14" style="fill: none;stroke: #3e863d;stroke-linecap: round;stroke-miterlimit: 10;stroke-width: 18px"/>
    <line x1="197.6" y1="177.03" x2="180.28" y2="167.03" style="fill: none;stroke: #3e863d;stroke-linecap: round;stroke-miterlimit: 10;stroke-width: 18px"/>
    <line x1="128" y1="78" x2="128" y2="58" style="fill: none;stroke: #3e863d;stroke-linecap: round;stroke-miterlimit: 10;stroke-width: 18px"/>
  </g>
</svg>
