<svg xmlns="http://www.w3.org/2000/svg" width="256" height="256" viewBox="0 0 256 256">
  <g>
    <path d="M128,34.25l88.11,50.88V186.87L128,237.74,39.89,186.87V85.13L128,34.25M128,16a16.33,16.33,0,0,0-8.17,2.19L30.06,70a16.33,16.33,0,0,0-8.17,14.15V187.83A16.33,16.33,0,0,0,30.06,202l89.77,51.83a16.33,16.33,0,0,0,16.34,0L225.94,202a16.33,16.33,0,0,0,8.17-14.15V84.17A16.33,16.33,0,0,0,225.94,70L136.17,18.19A16.33,16.33,0,0,0,128,16Z" style="fill: #3e863d"/>
    <line x1="36.54" y1="33" x2="78.11" y2="9" style="fill: none;stroke: #3e863d;stroke-linecap: round;stroke-miterlimit: 10;stroke-width: 18px"/>
    <line x1="223.74" y1="33" x2="182.17" y2="9" style="fill: none;stroke: #3e863d;stroke-linecap: round;stroke-miterlimit: 10;stroke-width: 18px"/>
    <line x1="73.25" y1="48.42" x2="57.75" y2="21.58" style="fill: none;stroke: #3e863d;stroke-miterlimit: 10;stroke-width: 18px"/>
    <line x1="186.74" y1="49.22" x2="202.24" y2="22.37" style="fill: none;stroke: #3e863d;stroke-miterlimit: 10;stroke-width: 18px"/>
  </g>
  <g>
    <circle cx="128" cy="134" r="24" style="fill: #3e863d"/>
    <line x1="128" y1="134" x2="188.62" y2="99" style="fill: none;stroke: #3e863d;stroke-linecap: round;stroke-miterlimit: 10;stroke-width: 18px"/>
    <line x1="128" y1="134" x2="128" y2="204" style="fill: none;stroke: #3e863d;stroke-linecap: round;stroke-miterlimit: 10;stroke-width: 18px"/>
  </g>
  <g>
    <line x1="85.34" y1="111.71" x2="59.36" y2="96.71" style="fill: none;stroke: #3e863d;stroke-linecap: round;stroke-miterlimit: 10;stroke-width: 18px"/>
    <line x1="59.3" y1="173.63" x2="85.29" y2="158.63" style="fill: none;stroke: #3e863d;stroke-linecap: round;stroke-miterlimit: 10;stroke-width: 18px"/>
    <line x1="197.18" y1="176.54" x2="171.2" y2="161.54" style="fill: none;stroke: #3e863d;stroke-linecap: round;stroke-miterlimit: 10;stroke-width: 18px"/>
    <line x1="128" y1="87" x2="128" y2="57" style="fill: none;stroke: #3e863d;stroke-linecap: round;stroke-miterlimit: 10;stroke-width: 18px"/>
  </g>
</svg>
