<svg xmlns="http://www.w3.org/2000/svg" width="256" height="256" viewBox="0 0 256 256"><defs><style>.a{fill:#46aa46;}.b,.c,.d{fill:none;stroke:#46aa46;stroke-miterlimit:10;}.b,.d{stroke-linecap:round;}.b{stroke-width:20px;}.c{stroke-width:30px;}.d{stroke-width:18px;}</style></defs><path class="a" d="M128,40.43l84.44,48.75v97.5L128,235.43,43.56,186.68V89.18L128,40.43m0-20.57a16.33,16.33,0,0,0-8.17,2.19L31.73,72.91a16.34,16.34,0,0,0-8.17,14.16V188.79A16.34,16.34,0,0,0,31.73,203l88.1,50.86a16.33,16.33,0,0,0,16.34,0L224.27,203a16.34,16.34,0,0,0,8.17-14.16V87.07a16.34,16.34,0,0,0-8.17-14.16l-88.1-50.86A16.33,16.33,0,0,0,128,19.86Z"/><line class="b" x1="35.54" y1="34" x2="77.11" y2="10"/><line class="b" x1="223.49" y1="33.77" x2="181.92" y2="9.77"/><line class="c" x1="75.25" y1="52.42" x2="59.75" y2="25.58"/><line class="c" x1="183.87" y1="55.5" x2="198.87" y2="29.52"/><line class="d" x1="128" y1="138" x2="188.62" y2="103"/><line class="d" x1="128" y1="138" x2="128" y2="208"/><circle class="a" cx="128" cy="138" r="24"/><line class="d" x1="76.1" y1="106.86" x2="58.78" y2="96.86"/><line class="d" x1="58.38" y1="177.14" x2="75.7" y2="167.14"/><line class="d" x1="197.6" y1="177.03" x2="180.28" y2="167.03"/><line class="d" x1="128" y1="78" x2="128" y2="58"/></svg>